<svg width="169" height="41" viewBox="0 0 169 41" fill="none" xmlns="http://www.w3.org/2000/svg">
<path d="M19.1277 40.9994H16.9649V34.993C16.9605 34.1803 17.187 33.3827 17.6187 32.6904C18.0503 31.9981 18.6699 31.4388 19.4073 31.0758L23.4533 29.0156L24.4097 30.8727L20.3636 32.9328C19.9862 33.1319 19.6714 33.4292 19.4535 33.7925C19.2356 34.1557 19.1229 34.571 19.1277 34.993V40.9994Z" fill="#F4F4F4"/>
<path d="M24.9976 19.0059H22.8789V41.0002H24.9976V19.0059Z" fill="#F4F4F4"/>
<path d="M4.88536 33.8023L3.41406 32.3515L7.72497 28.1006C8.3051 27.525 9.03685 27.1209 9.8376 26.9337C10.6383 26.7466 11.4762 26.7839 12.2566 27.0415L16.5528 28.4923L15.8613 30.4654L11.5651 29.0146C11.1538 28.8806 10.7127 28.8625 10.2915 28.9625C9.87038 29.0625 9.48594 29.2765 9.18156 29.5804L4.88536 33.8023Z" fill="#F4F4F4"/>
<path d="M23.334 20.8828L7.57031 36.4434L9.06923 37.9199L24.8329 22.3593L23.334 20.8828Z" fill="#F4F4F4"/>
<path d="M10.2108 24.0678L8.18043 20.078C7.97857 19.7058 7.67703 19.3954 7.30865 19.1805C6.94027 18.9657 6.51917 18.8546 6.09119 18.8593H0V16.7266H6.09119C6.91533 16.7223 7.72423 16.9456 8.42631 17.3713C9.12838 17.7969 9.69559 18.4079 10.0637 19.135L12.0941 23.1247L10.2108 24.0678Z" fill="#F4F4F4"/>
<path d="M22.3049 22.543H0V24.6321H22.3049V22.543Z" fill="#F4F4F4"/>
<path d="M12.7551 16.2928L10.7542 15.64L12.2255 11.4036C12.3614 10.998 12.3797 10.5631 12.2783 10.1478C12.1769 9.7325 11.9599 9.35341 11.6517 9.05327L7.35547 4.80238L8.82677 3.35156L13.1083 7.58795C13.6919 8.16 14.1018 8.88156 14.2916 9.67116C14.4814 10.4608 14.4435 11.287 14.1823 12.0565L12.7551 16.2928Z" fill="#F4F4F4"/>
<path d="M4.63459 7.45607L3.13672 8.93359L18.9114 24.4833L20.4093 23.0057L4.63459 7.45607Z" fill="#F4F4F4"/>
<path d="M18.1213 11.9257L17.1797 10.0687L21.2258 8.06654C21.6104 7.8721 21.9332 7.57701 22.159 7.21362C22.3848 6.85022 22.5048 6.43255 22.5058 6.00638V0H24.6098V6.00638C24.6141 6.81905 24.3877 7.61669 23.956 8.30899C23.5244 9.00129 22.9048 9.5606 22.1674 9.92358L18.1213 11.9257Z" fill="#F4F4F4"/>
<path d="M18.7124 0H16.5938V21.9944H18.7124V0Z" fill="#F4F4F4"/>
<path d="M30.9008 14.2033C30.4012 14.2166 29.9032 14.1429 29.4295 13.9857L25.0156 12.5784L25.6777 10.6053L29.9739 12.0561C30.3916 12.1843 30.8372 12.1952 31.2608 12.0875C31.6845 11.9799 32.0693 11.758 32.3721 11.4468L36.786 7.25391L38.2573 8.70472L33.8434 12.9266C33.0602 13.7018 32.0096 14.1576 30.9008 14.2033Z" fill="#F4F4F4"/>
<path d="M32.5059 3.07816L16.7422 18.6387L18.2411 20.1152L34.0048 4.55466L32.5059 3.07816Z" fill="#F4F4F4"/>
<path d="M41.5787 24.27H35.4875C34.6634 24.2743 33.8545 24.051 33.1524 23.6253C32.4503 23.1997 31.8831 22.5887 31.515 21.8616L29.4258 17.8719L31.309 16.9434L33.3394 20.9331C33.5366 21.3123 33.8359 21.6307 34.2044 21.8534C34.5729 22.076 34.9965 22.1943 35.4287 22.1953H41.5199L41.5787 24.27Z" fill="#F4F4F4"/>
<path d="M41.5784 16.3633H19.2734V18.4525H41.5784V16.3633Z" fill="#F4F4F4"/>
<path d="M32.7802 37.7206L28.484 33.3681C27.9192 32.8083 27.5195 32.1075 27.3277 31.3408C27.1359 30.574 27.1592 29.7703 27.3953 29.0157L28.8666 24.7793L30.8675 25.4322L29.4257 29.596C29.2902 29.9948 29.2694 30.4227 29.3655 30.8324C29.4616 31.2422 29.6708 31.6177 29.97 31.9173L34.2809 36.2698L32.7802 37.7206Z" fill="#F4F4F4"/>
<path d="M22.6854 16.5127L21.1875 17.9902L36.9622 33.5399L38.4601 32.0624L22.6854 16.5127Z" fill="#F4F4F4"/>
<path d="M165.667 9.11085C165.156 9.11104 164.652 8.99171 164.196 8.76266C163.764 8.55276 163.402 8.2256 163.151 7.81962C162.89 7.38108 162.762 6.87726 162.784 6.36881C162.766 5.86077 162.893 5.35807 163.151 4.91799C163.398 4.50881 163.761 4.18066 164.196 3.97496C164.681 3.74588 165.211 3.62695 165.748 3.62695C166.286 3.62695 166.816 3.74588 167.301 3.97496C167.729 4.1851 168.086 4.51252 168.33 4.91799C168.593 5.35687 168.725 5.85946 168.713 6.36881C168.729 6.87861 168.597 7.38229 168.33 7.81962C168.082 8.22158 167.725 8.54795 167.301 8.76266C166.796 9.01702 166.233 9.13705 165.667 9.11085ZM165.667 8.34192C166.058 8.34824 166.447 8.28433 166.815 8.15331C167.114 8.02791 167.362 7.80856 167.521 7.52946C167.701 7.1848 167.788 6.7998 167.771 6.41233C167.786 6.0204 167.7 5.63122 167.521 5.2807C167.364 5.00649 167.114 4.7958 166.815 4.68586C166.071 4.43383 165.263 4.43383 164.52 4.68586C164.221 4.7958 163.97 5.00649 163.814 5.2807C163.628 5.6287 163.542 6.01977 163.563 6.41233C163.54 6.8004 163.626 7.18729 163.814 7.52946C163.973 7.80856 164.221 8.02791 164.52 8.15331C164.888 8.28433 165.276 8.34824 165.667 8.34192ZM165.094 7.51495H164.446V5.25168H165.917C166.17 5.2355 166.422 5.29628 166.638 5.42578C166.725 5.48497 166.794 5.56602 166.838 5.66045C166.882 5.75487 166.899 5.85922 166.889 5.96258C166.897 6.05161 166.885 6.14142 166.851 6.22464C166.818 6.30787 166.765 6.38213 166.697 6.44135C166.567 6.54356 166.408 6.60427 166.241 6.61545C166.421 6.69985 166.57 6.83658 166.668 7.00717L166.977 7.48594H166.256L165.976 7.03618C165.94 6.94429 165.879 6.86398 165.8 6.80405C165.709 6.77615 165.611 6.77615 165.52 6.80405H165.049L165.094 7.51495ZM165.094 5.8175V6.32528H166.006C166.091 6.33268 166.175 6.30661 166.241 6.25274C166.266 6.22821 166.286 6.19872 166.298 6.16621C166.311 6.1337 166.317 6.09891 166.315 6.06414C166.32 6.0291 166.316 5.99326 166.303 5.96017C166.291 5.92708 166.269 5.8979 166.241 5.87553C166.165 5.8464 166.081 5.8464 166.006 5.87553L165.094 5.8175Z" fill="#F4F4F4"/>
<path d="M79.2302 9.09766H75.5078V13.0004H79.2302V9.09766Z" fill="#F4F4F4"/>
<path d="M69.1206 9.09766L62.382 18.8181H55.3786V9.09766H51.6562V31.861H55.3786V22.3436H62.4409L69.0912 31.861H73.5051L65.4718 20.3415L73.5345 9.09766H69.1206Z" fill="#F4F4F4"/>
<path d="M79.2302 14.9727H75.5078V31.8602H79.2302V14.9727Z" fill="#F4F4F4"/>
<path d="M109.994 15.5528C108.865 14.908 107.575 14.5912 106.272 14.6388C105.039 14.5915 103.816 14.8668 102.726 15.4367C101.831 15.9251 101.08 16.6352 100.548 17.4969C100.045 18.3311 99.7052 19.2516 99.5477 20.2099H99.327C99.2221 19.4853 99.0192 18.7777 98.7238 18.1062C98.2646 17.0686 97.5077 16.186 96.5463 15.5673C95.4397 14.9071 94.1601 14.5841 92.868 14.6388C91.6464 14.5901 90.4333 14.8604 89.3516 15.4222C88.4873 15.8936 87.7623 16.5786 87.2476 17.4098C86.7648 18.2288 86.4405 19.129 86.2913 20.0648H86.0853V14.9725H82.6719V31.918H86.3943V23.5033C86.2813 22.0237 86.6694 20.5491 87.4977 19.3104C87.9837 18.7923 88.5844 18.3919 89.253 18.1402C89.9216 17.8886 90.6401 17.7925 91.3526 17.8596C91.9895 17.7992 92.6323 17.8671 93.2418 18.0591C93.8513 18.2512 94.4149 18.5633 94.8984 18.9767C95.7039 20.0163 96.0869 21.3149 95.9724 22.6183V31.918H99.6507V23.5033C99.5421 22.0221 99.9354 20.5473 100.769 19.3104C101.255 18.7961 101.853 18.3981 102.519 18.1467C103.184 17.8952 103.899 17.797 104.609 17.8596C105.253 17.7974 105.903 17.8644 106.52 18.0563C107.137 18.2483 107.708 18.5614 108.199 18.9767C109.004 20.0163 109.387 21.3149 109.273 22.6183V31.918H112.951V21.7623C112.971 20.5107 112.72 19.2694 112.216 18.1207C111.749 17.0666 110.976 16.1728 109.994 15.5528Z" fill="#F4F4F4"/>
<path d="M131.757 15.7424C130.418 14.9762 128.889 14.5943 127.343 14.6398C125.621 14.5542 123.923 15.0677 122.546 16.0906C121.411 16.9814 120.613 18.2233 120.28 19.6161H120.074V9.09766H116.234V31.919H119.648V27.0007H119.898C120.17 28.534 121.016 29.9109 122.267 30.8599C123.659 31.8101 125.328 32.284 127.019 32.2092C128.629 32.258 130.221 31.8716 131.624 31.092C132.867 30.375 133.854 29.2953 134.449 28.0018C135.104 26.5665 135.426 25.0052 135.391 23.4317C135.442 21.8628 135.14 20.3022 134.508 18.8617C133.925 17.5756 132.967 16.4898 131.757 15.7424ZM131.065 26.6235C130.631 27.4042 129.934 28.0101 129.094 28.3355C128.076 28.6993 126.998 28.8716 125.916 28.8433C124.833 28.8692 123.757 28.6767 122.752 28.2775C121.898 27.9281 121.185 27.3112 120.722 26.522C120.226 25.635 119.982 24.6326 120.016 23.6203V23.3447C119.953 22.6099 120.052 21.8704 120.306 21.1768C120.56 20.4832 120.963 19.8518 121.487 19.3259C122.739 18.3548 124.311 17.8743 125.901 17.9767C126.962 17.9458 128.018 18.1284 129.005 18.5135C129.84 18.8471 130.536 19.4508 130.977 20.2254C131.476 21.2251 131.709 22.3334 131.654 23.4462C131.728 24.5371 131.526 25.629 131.065 26.6235Z" fill="#F4F4F4"/>
<path d="M152.425 9.09766H141.743L139.934 10.8822V11.7091H150.615L152.425 9.93913V9.09766Z" fill="#F4F4F4"/>
<path d="M150.81 15.537C149.431 14.8984 147.919 14.5902 146.396 14.6375C144.794 14.5938 143.203 14.8959 141.732 15.5225C140.544 16.0346 139.525 16.8637 138.789 17.9164C138.102 18.9392 137.743 20.1425 137.759 21.3693V21.4999H141.452V21.3693C141.403 20.8618 141.483 20.3501 141.686 19.8812C141.89 19.4122 142.209 19.0011 142.615 18.6853C143.689 18.0591 144.931 17.7706 146.175 17.8584C147.401 17.7432 148.629 18.0397 149.662 18.6998C150.036 19.0809 150.321 19.5382 150.496 20.0395C150.672 20.5409 150.734 21.074 150.677 21.6015V22.588L142.894 23.4005C141.885 23.5095 140.895 23.7536 139.952 24.1259C139.19 24.4249 138.528 24.9273 138.039 25.5767C137.576 26.2251 137.339 27.0039 137.362 27.7965C137.338 28.4234 137.469 29.0467 137.743 29.6128C138.017 30.1788 138.427 30.6708 138.936 31.0463C140.174 31.8865 141.659 32.2997 143.159 32.2214C144.868 32.2889 146.56 31.8656 148.029 31.0028C149.292 30.2461 150.229 29.0587 150.663 27.6659H150.913V31.9168H154.326V21.6015C154.347 20.351 154.054 19.1149 153.473 18.0034C152.869 16.9266 151.938 16.0639 150.81 15.537ZM147.485 29.0151C146.383 29.3676 145.229 29.5344 144.071 29.5084C143.264 29.5703 142.456 29.3989 141.747 29.0151C141.507 28.8557 141.313 28.6389 141.182 28.3852C141.05 28.1314 140.987 27.849 140.996 27.5643C140.956 27.2808 141.001 26.9917 141.127 26.7335C141.252 26.4753 141.453 26.2596 141.703 26.1135C142.371 25.763 143.109 25.56 143.865 25.5187L150.574 24.7642C150.625 25.7352 150.334 26.6934 149.751 27.4773C149.167 28.2002 148.378 28.7355 147.485 29.0151Z" fill="#F4F4F4"/>
<path d="M161.254 9.09766H157.531V31.861H161.254V9.09766Z" fill="#F4F4F4"/>
</svg>
